<?xml version="1.0" encoding="UTF-8"?>
<svg width="107px" height="29px" viewBox="0 0 107 29" version="1.1" xmlns="http://www.w3.org/2000/svg" xmlns:xlink="http://www.w3.org/1999/xlink">
    <!-- Generator: Sketch 49 (51002) - http://www.bohemiancoding.com/sketch -->
    <title>Group 21</title>
    <desc>Created with Sketch.</desc>
    <defs>
        <polygon id="path-1" points="0 0.080909147 23.7668609 0.080909147 23.7668609 27.3236216 0 27.3236216"></polygon>
        <polygon id="path-3" points="0.0182046848 0.109626374 16.2609108 0.109626374 16.2609108 28.9868559 0.0182046848 28.9868559"></polygon>
    </defs>
    <g id="Page-1" stroke="none" stroke-width="1" fill="none" fill-rule="evenodd">
        <g id="Desktop-HD" transform="translate(-77.000000, -53.000000)">
            <g id="Group-21" transform="translate(77.000000, 53.000000)">
                <g id="Group-23">
                    <g id="Group-3" transform="translate(0.000000, 1.000000)">
                        <mask id="mask-2" fill="white">
                            <use xlink:href="#path-1"></use>
                        </mask>
                        <g id="Clip-2"></g>
                        <path d="M20.7964034,18.5857148 C19.7514316,16.5134913 18.7718343,14.5708599 17.7239683,12.4925472 C16.6692925,14.5880347 15.6827151,16.5481533 14.6571514,18.5857148 L20.7964034,18.5857148 Z M13.6033267,0.080909147 C17.0314063,6.91587406 20.378619,13.5893954 23.7668609,20.3451999 L11.7159762,20.3451999 C11.8635797,20.0263722 11.9847951,19.7453293 12.1220136,19.4710001 C13.5275671,16.6605705 14.9249488,13.8465497 16.3548475,11.046425 C16.5787214,10.6078418 16.6156649,10.256382 16.381406,9.80889912 C15.4622461,8.05362966 14.5858182,6.27931174 13.6247778,4.37602633 C13.4441464,4.70094322 13.3069279,4.92874416 13.1879258,5.16435185 C9.68987492,12.0970573 6.19369679,19.0305433 2.69683767,25.9638733 C1.95235058,27.4398173 1.9516696,27.4396611 -3.40492611e-05,27.2156074 C4.51728142,18.2049016 9.02114743,9.22105091 13.6033267,0.080909147 Z" id="Fill-1" fill="#1DAAE5" mask="url(#mask-2)"></path>
                    </g>
                    <g id="Group-6" transform="translate(18.000000, 0.000000)">
                        <mask id="mask-4" fill="white">
                            <use xlink:href="#path-3"></use>
                        </mask>
                        <g id="Clip-5"></g>
                        <path d="M16.2609622,28.8919352 C16.1599202,28.9279462 16.1347453,28.9437209 16.1085429,28.9453143 C14.2954385,29.0551 14.294411,29.0554187 13.5355685,27.5270231 C9.14966086,18.6931769 4.76426704,9.85917143 0.379558258,1.02468791 C0.25145756,0.766556044 0.134659865,0.503643956 0.0182046848,0.254594505 C0.105888585,0.201693407 0.126782014,0.178748352 0.149559278,0.176836264 C2.02825534,0.018610989 2.0296254,0.018132967 2.801826,1.58110549 C7.17026532,10.4222813 11.5380196,19.2637758 15.9045751,28.1059077 C16.0318195,28.3637209 16.1421094,28.6287044 16.2609622,28.8919352" id="Fill-4" fill="#1DAAE5" mask="url(#mask-4)"></path>
                    </g>
                    <g id="Group-22" transform="translate(8.000000, 26.000000)" fill="#1DAAE5">
                        <path d="M0,2 C0.216980454,1.43518007 0.357484191,0.928744767 0.598878988,0.497481996 C0.728873239,0.265062699 1.03089968,0.0210783974 1.25612604,0.0199592033 C6.42064889,-0.00671492138 11.5851717,-0.00671492138 16.7495329,0.020332268 C16.9739508,0.0214514621 17.2737137,0.270845202 17.4040313,0.504383692 C17.6442943,0.935086867 17.7847981,1.43984338 18,2 L0,2 Z" id="Fill-7"></path>
                    </g>
                </g>
                <path d="M51.402,7 L53.074,7 L59.454,22.62 L57.342,22.62 L55.494,18.044 L48.938,18.044 L47.112,22.62 L45,22.62 L51.402,7 Z M55.054,16.504 L52.238,9.288 L49.334,16.504 L55.054,16.504 Z M62.3297143,22.62 L62.3297143,7 L69.0177143,7 C69.7070511,7 70.3413781,7.14299857 70.9207143,7.429 C71.5000506,7.71500143 71.9987122,8.09633095 72.4167143,8.573 C72.8347164,9.04966905 73.1610465,9.58499703 73.3957143,10.179 C73.6303822,10.773003 73.7477143,11.3779969 73.7477143,11.994 C73.7477143,12.5366694 73.6707151,13.0609975 73.5167143,13.567 C73.3627136,14.0730025 73.1427158,14.5313313 72.8567143,14.942 C72.5707129,15.3526687 72.2260497,15.7046652 71.8227143,15.998 C71.419379,16.2913348 70.9683835,16.5039993 70.4697143,16.636 L74.2537143,22.62 L72.0097143,22.62 L68.4457143,17.01 L64.3097143,17.01 L64.3097143,22.62 L62.3297143,22.62 Z M64.3097143,15.25 L69.0397143,15.25 C69.450383,15.25 69.8207127,15.1620009 70.1507143,14.986 C70.480716,14.8099991 70.7630465,14.5716682 70.9977143,14.271 C71.2323822,13.9703318 71.4157137,13.622002 71.5477143,13.226 C71.679715,12.829998 71.7457143,12.4193355 71.7457143,11.994 C71.7457143,11.5539978 71.6687151,11.1396686 71.5147143,10.751 C71.3607136,10.3623314 71.1553823,10.0176682 70.8987143,9.717 C70.6420464,9.41633183 70.3413827,9.18166751 69.9967143,9.013 C69.6520459,8.84433249 69.2890496,8.76 68.9077143,8.76 L64.3097143,8.76 L64.3097143,15.25 Z M77.5694287,22.62 L77.5694287,7 L82.9814287,7 C84.2281016,7 85.3244239,7.20533128 86.2704287,7.616 C87.2164334,8.02666872 88.0047588,8.58399648 88.6354287,9.288 C89.2660985,9.99200352 89.7390937,10.8169953 90.0544287,11.763 C90.3697636,12.7090047 90.5274287,13.717328 90.5274287,14.788 C90.5274287,15.9760059 90.3514304,17.0503285 89.9994287,18.011 C89.6474269,18.9716715 89.141432,19.7929966 88.4814287,20.475 C87.8214254,21.1570034 87.0257666,21.6849981 86.0944287,22.059 C85.1630907,22.4330019 84.1254344,22.62 82.9814287,22.62 L77.5694287,22.62 Z M88.5254287,14.788 C88.5254287,13.9079956 88.4044299,13.0976704 88.1624287,12.357 C87.9204274,11.6163296 87.5610977,10.9820026 87.0844287,10.454 C86.6077596,9.92599736 86.0247654,9.51166817 85.3354287,9.211 C84.6460919,8.91033183 83.8614331,8.76 82.9814287,8.76 L79.5494287,8.76 L79.5494287,20.86 L82.9814287,20.86 C83.8760998,20.86 84.6717585,20.7060015 85.3684287,20.398 C86.0650988,20.0899985 86.6444263,19.6646694 87.1064287,19.122 C87.568431,18.5793306 87.9204274,17.9376704 88.1624287,17.197 C88.4044299,16.4563296 88.5254287,15.6533377 88.5254287,14.788 Z M98.309143,7 L99.981143,7 L106.361143,22.62 L104.249143,22.62 L102.401143,18.044 L95.845143,18.044 L94.019143,22.62 L91.907143,22.62 L98.309143,7 Z M101.961143,16.504 L99.145143,9.288 L96.241143,16.504 L101.961143,16.504 Z" id="ARDA" fill="#3B566E"></path>
            </g>
        </g>
    </g>
</svg>